<svg width="421" height="929" viewBox="0 0 421 929" fill="none" xmlns="http://www.w3.org/2000/svg">
<path d="M874.404 259.447C872.361 233.457 864.904 210.224 848.713 189.392C815.718 146.91 763.111 121.635 717.246 95.8494C664.025 65.9281 606.004 39.581 549.157 17.3187C532.507 10.783 515.601 5.1153 498.44 0.162448C496.601 -0.348155 494.558 0.366687 493.588 2.00062C491.136 6.18756 490.472 11.4468 489.91 16.3996C482.658 85.9437 482.709 156.611 485.16 226.411C486.642 268.74 491.392 311.12 517.797 345.994C536.082 370.145 560.241 389.14 585.012 406.5C594.155 412.934 604.574 418.857 614.38 424.371C636.853 436.881 659.684 447.808 682.004 460.726C708.971 476.3 735.939 491.822 762.907 507.395C792.275 524.347 810.355 555.698 810.355 589.653V597.772C810.355 633.208 791.407 665.989 760.71 683.655L484.854 842.759C470.195 851.184 453.851 855.422 437.507 855.473C421.163 855.473 404.819 851.235 390.161 842.759L114.304 683.655C83.608 665.937 64.6592 633.208 64.6592 597.772V589.653C64.6592 555.749 82.7398 524.398 112.108 507.395C139.076 491.822 166.043 476.3 193.011 460.726C215.382 447.808 238.212 436.932 260.634 424.371C270.492 418.857 280.86 412.934 290.002 406.5C314.774 389.089 338.932 370.145 357.217 345.994C383.623 311.12 388.373 268.74 389.854 226.411C392.306 156.56 392.357 85.9437 385.104 16.3996C384.594 11.4468 383.93 6.23862 381.427 2.00062C380.456 0.366687 378.413 -0.348155 376.575 0.162448C359.414 5.1153 342.508 10.834 325.857 17.3187C269.011 39.632 210.989 65.9281 157.769 95.8494C111.853 121.686 59.2452 146.91 26.3018 189.392C10.111 210.224 2.65403 233.508 0.611026 259.447C-0.768001 277.216 0.611028 295.699 0.662103 313.519C0.662103 322.046 0.662103 330.574 0.662103 339.101C0.662103 347.883 10.6728 353.04 17.7723 347.832C44.2292 328.48 72.5247 311.222 100.667 294.78C100.82 293.708 101.076 292.585 101.433 291.461C114.1 258.681 128.043 226.155 143.621 194.702C145.817 190.26 152.61 192.864 151.231 197.664C143.621 223.909 137.186 250.256 131.568 276.909C134.223 275.377 136.828 273.846 139.433 272.365C157.463 261.795 175.594 250.103 192.807 238.154C210.325 226.104 227.487 213.748 243.677 200.268C259.919 186.839 275.191 172.236 289.083 156.305C292.812 151.965 300.013 157.122 296.591 162.126C272.943 195.825 243.984 225.287 212.879 252.298C245.261 253.932 277.336 254.902 309.053 246.682C313.906 245.456 316.306 252.451 311.709 254.443C271.258 271.548 225.546 273.029 182.847 277.522C182.745 277.522 182.643 277.522 182.54 277.522C173.909 284.415 165.226 291.206 156.492 297.895C137.339 311.988 117.062 326.591 97.0919 341.858C126.664 342.726 157.922 343.951 182.592 346.811C187.597 347.423 187.29 354.878 182.183 354.98C149.444 355.797 104.089 361.21 67.6215 365.295C53.7291 376.834 29.0598 401.854 13.7884 417.836C5.36101 426.669 0.713179 438.362 0.713179 450.565L0.764255 555.852L0.815326 634.535C0.815326 669.971 19.7642 702.701 50.4603 720.419L390.161 916.286C404.819 924.711 421.112 928.949 437.456 929C453.8 928.949 470.093 924.762 484.752 916.286L824.452 720.419C855.148 702.701 874.097 669.971 874.097 634.535L874.148 555.852L874.199 450.565C874.199 438.362 869.551 426.669 861.124 417.836C845.853 401.854 821.132 376.783 807.291 365.295C770.823 361.21 725.469 355.797 692.73 354.98C687.673 354.878 687.316 347.423 692.321 346.811C716.99 343.951 748.197 342.726 777.821 341.858C757.85 326.591 737.573 311.988 718.42 297.895C709.686 291.206 701.004 284.466 692.372 277.522C692.27 277.522 692.168 277.522 692.066 277.522C649.367 272.978 603.655 271.548 563.203 254.443C558.555 252.451 561.007 245.456 565.859 246.682C597.577 254.902 629.652 253.932 662.033 252.298C630.929 225.236 601.918 195.825 578.321 162.126C574.899 157.122 582.101 152.016 585.829 156.305C599.773 172.236 615.044 186.839 631.235 200.268C647.477 213.748 664.638 226.104 682.106 238.154C699.267 250.051 717.45 261.795 735.479 272.365C738.084 273.897 740.74 275.377 743.345 276.909C737.727 250.307 731.291 223.909 723.681 197.664C722.353 192.915 729.095 190.311 731.291 194.702C746.869 226.155 760.813 258.732 773.479 291.461C773.888 292.636 774.143 293.708 774.245 294.78C802.388 311.222 830.683 328.48 857.14 347.832C864.24 353.04 874.25 347.883 874.25 339.101C874.25 330.574 874.25 322.046 874.25 313.519C874.352 295.699 875.783 277.216 874.404 259.447Z" fill="#FFE164"/>
</svg>
